<?xml version="1.0" encoding="utf-8"?>
<!-- Generated by IcoMoon.io -->
<svg version="1.1" xmlns="http://www.w3.org/2000/svg" xmlns:xlink="http://www.w3.org/1999/xlink" width="752" height="80" viewBox="0 0 752 80">
<svg id="icon-shop" width="128" height="82" viewBox="0 0 50 32" x="0" y="0">
<path fill="#e0e3e6" d="M24.898 31.956c13.713 0 24.898-0.771 24.898-1.717s-11.184-1.717-24.898-1.717-24.898 0.771-24.898 1.717c0 0.946 11.184 1.717 24.898 1.717z"></path>
<path fill="#f0f1f1" d="M9.816 27.654h29.646v-18.176h-29.646v18.176z"></path>
<path fill="#292c6a" d="M36.508 27.289h-25.485c-0.265 0-0.561-0.031-0.841-0.026v-17.42h28.073c0.265 0 0.561 0.031 0.842 0.026v17.42h-2.588zM39.461 9.113h-25.997c-1.195 0-2.402-0.051-3.596 0-0.018 0.001-0.035 0-0.053 0-0.197 0-0.365 0.167-0.365 0.365v18.176c0 0.197 0.168 0.365 0.365 0.365h25.997c1.195 0 2.402 0.051 3.596 0 0.018-0.001 0.035 0 0.053 0 0.107 0 0.188-0.039 0.247-0.098l0.013-0.012 0.007-0.007c0.060-0.059 0.099-0.141 0.099-0.249v-18.176c0-0.197-0.167-0.365-0.365-0.365z"></path>
<path fill="#f0f1f1" d="M7.544 29.631h34.145v-1.977h-34.145v1.977z"></path>
<path fill="#292c6a" d="M38.33 29.618h-29.355c-0.328 0-0.689-0.037-1.031-0.026v-1.574h32.383c0.328 0 0.689 0.037 1.031 0.026v1.574l-3.029 0zM41.724 27.289h-29.936c-1.379 0-2.771-0.055-4.149 0-0.019 0.001-0.039 0-0.059 0-0.197 0-0.365 0.167-0.365 0.365v2.33c0 0.197 0.167 0.365 0.365 0.365h29.936c1.38 0 2.771 0.055 4.15 0 0.020-0.001 0.039 0 0.059 0 0.197 0 0.365-0.167 0.365-0.365v-2.33c0-0.197-0.167-0.365-0.365-0.365z"></path>
<path fill="#39c0c4" d="M29.916 27.653h6.807v-12.042h-6.807v12.042z"></path>
<path fill="#292c6a" d="M30.77 27.289h-0.488v-11.312h6.077v11.312h-5.589zM36.724 15.246h-6.807c-0.197 0-0.365 0.167-0.365 0.365v12.043c0 0.197 0.167 0.365 0.365 0.365h6.807c0.107 0 0.188-0.039 0.247-0.098l0.012-0.012 0.007-0.007c0.059-0.059 0.099-0.14 0.099-0.248v-12.043c0-0.197-0.168-0.365-0.365-0.365z"></path>
<path fill="#d4dae0" d="M13.019 21.27h13.515v-5.659h-13.515v5.659z"></path>
<path fill="#292c6a" d="M21.965 20.905h-8.581v-4.929h12.785v4.929h-4.204zM26.899 15.611c0-0.197-0.167-0.365-0.365-0.365h-13.515c-0.197 0-0.365 0.167-0.365 0.365v5.659c0 0.197 0.167 0.365 0.365 0.365h13.515c0.107 0 0.189-0.039 0.247-0.098l0.012-0.012 0.007-0.007c0.060-0.059 0.099-0.14 0.099-0.249v-5.659z"></path>
<path fill="#f0f1f1" d="M12.319 9.572l1.497-9.091h3.906l-0.51 9.091c0 0-0.146 2.446-2.447 2.446s-2.446-2.446-2.446-2.446h-0zM22.104 9.572v-9.091h4.892v9.091c0 0-0.073 2.446-2.446 2.446s-2.446-2.446-2.446-2.446zM31.888 9.572l-0.146-9.091h4.052l0.986 9.091c0 0-0.11 2.081-2.154 2.41s-2.689-1.53-2.738-2.41z"></path>
<path fill="#39c0c4" d="M41.673 9.572l-1.898-9.091h-3.98l0.986 9.091c0 0 0 2.446 2.446 2.446s2.446-2.446 2.446-2.446zM17.723 0.481h4.381v9.091c0 0-0.255 2.409-2.446 2.446s-2.446-2.446-2.446-2.446l0.511-9.091zM26.995 0.481l0 9.091c0 0 0.11 2.482 2.446 2.446s2.446-2.446 2.446-2.446l-0.146-9.091h-4.747zM13.816 0.481l-0.644 3.912c-0.272 1.651-0.556 3.301-0.816 4.955-0.1 0.635-0.219 1.212-0.619 1.744-0.447 0.595-1.127 0.901-1.864 0.926-2.264 0.073-2.27-2.519-2.27-2.519l2.416-9.018h3.797z"></path>
<path fill="#292c6a" d="M41.103 10.502c-0.277 0.649-0.837 1.052-1.538 1.134-0.782 0.091-1.614-0.125-2.050-0.822-0.231-0.37-0.34-0.833-0.367-1.177l-0.006-0.068c0.005-0.412-0.053-0.839-0.115-1.261-0.164-1.652-0.377-3.302-0.556-4.951l-0.272-2.511h3.279l1.829 8.756c-0.005 0.285-0.068 0.581-0.204 0.9zM36.395 9.729c-0.108 0.533-0.326 1.038-0.741 1.405-0.658 0.581-1.812 0.737-2.535 0.19-0.526-0.397-0.822-1.107-0.866-1.753l-0.004-0.289v-0.001l-0.041-2.537-0.002-0.144c-0.031-1.917-0.034-3.838-0.091-5.755h3.354l0.749 6.907c0.068 0.622 0.128 1.245 0.195 1.867 0.001 0.075 0.007-0.019-0.019 0.108zM31.492 9.804c-0.018 0.084-0.035 0.168-0.058 0.251-0.059 0.217-0.139 0.425-0.251 0.621-0.279 0.489-0.724 0.814-1.277 0.93-1.205 0.252-2.167-0.412-2.462-1.565-0.061-0.236-0.078-0.315-0.082-0.478v-0.042c0.025-0.433 0-0.873 0-1.301v-7.373h4.021l0.073 4.508 0.051 3.148v0l0.017 1.045c-0.002 0.046-0.005 0.091-0.010 0.137v0.001l-0.003 0.014c-0.005 0.035-0.011 0.070-0.018 0.105v0zM26.628 9.621c-0.001 0.023-0.004 0.047-0.007 0.070l-0.004 0.048c0-0.004 0-0.011-0.004 0.017-0.038 0.233-0.096 0.467-0.187 0.685-0.256 0.619-0.755 1.054-1.421 1.175-0.874 0.159-1.769-0.134-2.213-0.929-0.137-0.243-0.223-0.509-0.279-0.781-0.036-0.173-0.039-0.156-0.045-0.335v-3.005c0-1.906 0.032-3.815 0.003-5.721h4.158v6.327l0 1.65c0 0.213-0.004 0.423 0.003 0.631-0.001 0.039-0.001 0.077-0.003 0.116l-0.003 0.052v-0zM20.020 11.62c-1.185 0.216-2.043-0.556-2.351-1.641-0.037-0.13-0.067-0.262-0.089-0.395 0.056-0.492 0.053-0.999 0.080-1.486 0.037-0.664 0.074-1.328 0.112-1.992l0.295-5.259h3.672v8.725l-0.005 0.022c-0.198 0.934-0.69 1.84-1.714 2.027v0zM16.846 9.585c-0.002 0.032-0.003 0.046-0.003 0.051-0.001 0.001-0.002 0.007-0.007 0.035-0.038 0.224-0.092 0.446-0.173 0.659-0.236 0.622-0.7 1.108-1.359 1.265-0.858 0.204-1.771-0.084-2.234-0.852-0.156-0.259-0.26-0.541-0.328-0.835-0.020-0.087-0.036-0.174-0.050-0.261-0.001-0.012-0.005-0.041-0.007-0.063l0.988-6.003c0.15-0.911 0.3-1.822 0.45-2.734h3.213l-0.268 4.759-0.067 1.206-0.012 0.219-0.025 0.443-0.071 1.271c-0.012 0.199-0.028 0.391-0.033 0.582l-0.013 0.234-0.002 0.025zM11.883 9.886c-0.157 0.649-0.494 1.234-1.106 1.545-0.478 0.242-1.087 0.302-1.599 0.134-0.663-0.217-0.997-0.86-1.139-1.501-0.048-0.218-0.030-0.313-0.069-0.522l0.017-0.063c0.119-0.41 0.221-0.826 0.332-1.238l1.981-7.394h3.088l-0.483 2.935c-0.075 0.455-0.149 0.909-0.226 1.364-0.137 0.825-0.276 1.651-0.412 2.477-0.028 0.169-0.053 0.339-0.078 0.509-0.012 0.069-0.023 0.139-0.034 0.208l-0.178 1.077c-0.017 0.043-0.025 0.093-0.023 0.15-0.022 0.107-0.045 0.214-0.071 0.32v0zM42.024 9.469l-1.662-7.96-0.236-1.125c-0.032-0.156-0.199-0.268-0.352-0.268h-29.755c-0.16 0-0.311 0.113-0.352 0.268l-2.066 7.712c-0.11 0.413-0.237 0.825-0.332 1.241-0.074 0.32 0.008 0.679 0.083 0.993 0.183 0.754 0.616 1.483 1.34 1.822 1.069 0.501 2.477 0.185 3.236-0.714 0.154-0.182 0.276-0.377 0.375-0.581 0.336 0.671 0.902 1.216 1.65 1.421 0.895 0.247 1.927 0.078 2.63-0.544 0.274-0.242 0.488-0.549 0.648-0.882 0.353 0.698 0.93 1.27 1.723 1.456 1.291 0.302 2.517-0.307 3.114-1.442 0.317 0.64 0.851 1.161 1.552 1.383 0.887 0.28 1.966 0.147 2.697-0.447 0.291-0.236 0.518-0.541 0.686-0.876 0.354 0.691 0.951 1.233 1.756 1.393 1.294 0.256 2.533-0.281 3.127-1.423 0.49 0.957 1.434 1.604 2.635 1.464 0.916-0.107 1.759-0.654 2.231-1.431 0.091 0.185 0.199 0.361 0.33 0.524 0.576 0.712 1.5 0.985 2.391 0.92 1.492-0.109 2.559-1.315 2.566-2.802 0-0.038-0.006-0.071-0.014-0.103z"></path>
</svg>
<svg id="icon-app-store" width="185" height="60" viewBox="0 0 99 32" x="0" y="0">
<path fill="#240c39" d="M4.267 0h90.133c2.347 0 4.267 1.92 4.267 4.267v23.467c0 2.347-1.92 4.267-4.267 4.267h-90.133c-2.347 0-4.267-1.92-4.267-4.267v-23.467c0-2.347 1.92-4.267 4.267-4.267z"></path>
<path fill="#fff" d="M38.080 19.893h-3.040l-0.747 2.187h-1.227l2.88-8.053h1.333l2.88 8.053h-1.28l-0.8-2.187zM35.413 18.88h2.4l-1.173-3.52h-0.053l-1.173 3.52zM46.347 19.147c0 1.813-0.96 2.987-2.4 2.987-0.747 0.053-1.44-0.373-1.813-1.013h-0.053v2.88h-1.173v-7.84h1.173v0.96c0.373-0.64 1.067-1.067 1.867-1.013 1.387 0 2.4 1.173 2.4 3.040zM45.12 19.147c0-1.173-0.587-1.973-1.547-1.973-0.907 0-1.493 0.8-1.493 1.973s0.587 1.973 1.493 1.973c0.907 0 1.547-0.8 1.547-1.973zM52.693 19.147c0 1.813-0.96 2.987-2.4 2.987-0.747 0.053-1.44-0.373-1.813-1.013h-0.053v2.88h-1.173v-7.84h1.173v0.96c0.373-0.64 1.067-1.067 1.867-1.013 1.44 0 2.4 1.173 2.4 3.040zM51.467 19.147c0-1.173-0.587-1.973-1.547-1.973-0.907 0-1.493 0.8-1.493 1.973s0.587 1.973 1.493 1.973c0.96 0 1.547-0.8 1.547-1.973zM56.907 19.787c0.107 0.8 0.853 1.333 1.92 1.333 1.013 0 1.707-0.533 1.707-1.227 0-0.64-0.427-1.013-1.44-1.28l-1.013-0.267c-1.44-0.373-2.133-1.067-2.133-2.187 0-1.387 1.173-2.347 2.88-2.347 1.653 0 2.827 0.96 2.88 2.347h-1.173c-0.053-0.8-0.747-1.28-1.707-1.28s-1.6 0.48-1.6 1.227c0 0.587 0.427 0.907 1.44 1.173l0.853 0.213c1.653 0.373 2.293 1.067 2.293 2.24 0 1.493-1.173 2.453-3.040 2.453-1.76 0-2.933-0.907-3.040-2.4h1.173zM64.373 14.773v1.387h1.12v0.96h-1.12v3.253c0 0.48 0.213 0.747 0.693 0.747 0.107 0 0.267 0 0.373-0.053v0.96c-0.213 0.053-0.427 0.053-0.64 0.053-1.173 0-1.653-0.427-1.653-1.6v-3.36h-0.853v-0.96h0.853v-1.387h1.227zM66.080 19.147c0-1.867 1.067-2.987 2.72-2.987s2.72 1.173 2.72 2.987c0 1.867-1.067 2.987-2.72 2.987s-2.72-1.173-2.72-2.987zM70.347 19.147c0-1.28-0.587-2.027-1.547-2.027s-1.547 0.747-1.547 2.027c0 1.28 0.587 2.027 1.547 2.027 1.013-0.053 1.547-0.8 1.547-2.027zM72.587 16.16h1.12v1.013h0.053c0.16-0.64 0.747-1.067 1.387-1.067 0.16 0 0.267 0 0.427 0.053v1.12c-0.16-0.053-0.373-0.053-0.533-0.053-0.373 0-0.693 0.107-0.907 0.373s-0.373 0.587-0.32 0.96v3.467h-1.173l-0.053-5.867zM81.013 20.32c-0.16 1.067-1.173 1.813-2.507 1.813-1.707 0-2.72-1.12-2.72-2.987s1.067-3.040 2.667-3.040c1.6 0 2.613 1.12 2.613 2.88v0.427h-4.107v0.053c-0.053 0.427 0.107 0.853 0.427 1.173s0.693 0.48 1.173 0.48c0.587 0.053 1.12-0.267 1.333-0.8h1.12zM76.96 18.56h2.88c0-0.373-0.107-0.8-0.373-1.067s-0.64-0.427-1.013-0.427c-0.373 0-0.747 0.16-1.067 0.427-0.267 0.32-0.427 0.693-0.427 1.067zM34.987 8.747c0.533-0.053 1.013 0.16 1.333 0.533 0.373 0.373 0.533 0.907 0.427 1.44 0 1.28-0.64 2.027-1.813 2.027h-1.333v-4h1.387zM34.187 12.16h0.693c0.373 0 0.693-0.107 0.96-0.427 0.267-0.267 0.373-0.64 0.32-1.013 0.053-0.373-0.053-0.747-0.32-1.013-0.213-0.267-0.587-0.427-0.96-0.427h-0.693v2.88zM37.44 11.2c-0.053-0.533 0.213-1.067 0.64-1.333s1.013-0.267 1.44 0c0.427 0.267 0.693 0.8 0.64 1.333 0.053 0.533-0.213 1.067-0.64 1.333s-1.013 0.267-1.44 0c-0.427-0.267-0.693-0.747-0.64-1.333zM39.573 11.2c0-0.64-0.267-1.013-0.747-1.013s-0.747 0.373-0.747 1.013c0 0.64 0.267 1.067 0.747 1.067s0.747-0.373 0.747-1.067zM43.787 12.747h-0.587l-0.587-2.24h-0.053l-0.587 2.24h-0.587l-0.8-3.040h0.587l0.533 2.293h0.053l0.587-2.293h0.533l0.587 2.293h0.053l0.533-2.293h0.587c-0.053 0-0.853 3.040-0.853 3.040zM45.227 9.707h0.533v0.48h0.053c0.16-0.373 0.48-0.587 0.853-0.533 0.267 0 0.587 0.107 0.747 0.32 0.213 0.213 0.267 0.533 0.267 0.8v1.973h-0.587v-1.813c0-0.48-0.213-0.747-0.64-0.747-0.213 0-0.373 0.053-0.533 0.213s-0.213 0.373-0.16 0.533v1.76h-0.587c0.053 0.053 0.053-2.987 0.053-2.987zM48.587 8.533h0.587v4.213h-0.587v-4.213zM49.973 11.2c-0.053-0.533 0.213-1.067 0.64-1.333s1.013-0.267 1.44 0c0.427 0.267 0.693 0.8 0.64 1.333 0.053 0.533-0.213 1.067-0.64 1.333s-1.013 0.267-1.44 0c-0.48-0.267-0.693-0.747-0.64-1.333zM52.107 11.2c0-0.64-0.267-1.013-0.747-1.013s-0.747 0.373-0.747 1.013c0 0.64 0.267 1.067 0.747 1.067 0.427 0 0.747-0.373 0.747-1.067zM53.28 11.893c0-0.533 0.373-0.853 1.067-0.907l0.8-0.053v-0.267c0-0.32-0.213-0.48-0.587-0.48-0.32 0-0.533 0.107-0.587 0.32h-0.533c0.053-0.533 0.533-0.853 1.173-0.853 0.747 0 1.12 0.373 1.12 1.013v2.080h-0.533v-0.427h-0.053c-0.16 0.32-0.533 0.48-0.853 0.48-0.267 0-0.48-0.053-0.693-0.213-0.213-0.213-0.32-0.427-0.32-0.693zM55.147 11.627v-0.267l-0.693 0.053c-0.373 0.053-0.587 0.16-0.587 0.427s0.213 0.427 0.533 0.427c0.16 0 0.373-0.053 0.48-0.16 0.16-0.107 0.213-0.267 0.267-0.48zM56.427 11.2c0-0.96 0.48-1.547 1.173-1.547 0.373 0 0.693 0.213 0.907 0.533h0.053v-1.653h0.587v4.213h-0.533v-0.48h-0.053c-0.16 0.32-0.533 0.533-0.907 0.533-0.747 0-1.227-0.64-1.227-1.6zM57.013 11.2c0 0.64 0.267 1.013 0.747 1.013s0.8-0.373 0.8-1.013c0-0.64-0.32-1.013-0.8-1.013-0.427 0-0.747 0.373-0.747 1.013zM61.493 11.2c-0.053-0.533 0.213-1.067 0.64-1.333s1.013-0.267 1.44 0c0.427 0.267 0.693 0.8 0.64 1.333 0.053 0.533-0.213 1.067-0.64 1.333s-1.013 0.267-1.44 0c-0.427-0.267-0.693-0.747-0.64-1.333zM63.627 11.2c0-0.64-0.267-1.013-0.747-1.013s-0.747 0.373-0.747 1.013c0 0.64 0.267 1.067 0.747 1.067s0.747-0.373 0.747-1.067zM64.96 9.707h0.533v0.48h0.053c0.16-0.373 0.48-0.587 0.853-0.533 0.267 0 0.587 0.107 0.747 0.32 0.213 0.213 0.267 0.533 0.267 0.8v1.973h-0.587v-1.813c0-0.48-0.213-0.747-0.64-0.747-0.213 0-0.373 0.053-0.533 0.213-0.107 0.16-0.213 0.373-0.16 0.533v1.76h-0.587l0.053-2.987zM70.613 8.96v0.747h0.64v0.48h-0.64v1.547c0 0.32 0.107 0.48 0.427 0.48 0.053 0 0.16 0 0.213 0v0.48c-0.107 0-0.213 0.053-0.32 0.053-0.64 0-0.907-0.213-0.907-0.8v-1.707h-0.48v-0.48h0.48v-0.747l0.587-0.053zM72.053 8.533h0.587v1.653h0.053c0.16-0.373 0.48-0.587 0.853-0.533 0.267 0 0.587 0.107 0.747 0.32 0.213 0.213 0.267 0.533 0.267 0.8v1.973h-0.587v-1.813c0-0.48-0.213-0.747-0.64-0.747-0.213 0-0.373 0.053-0.533 0.213s-0.213 0.373-0.213 0.533v1.76h-0.587v-4.16h0.053zM77.813 11.893c-0.16 0.587-0.693 0.96-1.227 0.853-0.373 0-0.747-0.16-1.013-0.48s-0.373-0.693-0.32-1.12c-0.053-0.373 0.053-0.8 0.32-1.12s0.64-0.48 1.013-0.48c0.8 0 1.28 0.587 1.28 1.547v0.213h-2.027v0.053c0 0.213 0.053 0.427 0.213 0.587s0.373 0.267 0.587 0.267c0.267 0.053 0.533-0.107 0.693-0.373-0.053 0.053 0.48 0.053 0.48 0.053zM75.84 10.933h1.44c0-0.213-0.053-0.427-0.213-0.533-0.107-0.16-0.32-0.213-0.533-0.213s-0.373 0.107-0.533 0.213c-0.107 0.16-0.16 0.32-0.16 0.533zM26.933 15.893c0-1.067 0.587-2.080 1.493-2.667-0.587-0.853-1.493-1.333-2.507-1.387-1.067-0.107-2.080 0.64-2.613 0.64s-1.387-0.64-2.293-0.587c-1.173 0.053-2.24 0.693-2.827 1.76-1.227 2.133-0.32 5.28 0.853 6.987 0.587 0.853 1.28 1.76 2.187 1.76 0.853-0.053 1.227-0.587 2.24-0.587 1.067 0 1.333 0.587 2.293 0.533 0.96 0 1.547-0.853 2.080-1.707 0.427-0.587 0.747-1.28 0.96-1.973-1.12-0.427-1.867-1.547-1.867-2.773zM25.227 10.773c0.533-0.64 0.747-1.44 0.693-2.24-0.8 0.107-1.493 0.48-2.027 1.067s-0.8 1.333-0.747 2.133c0.853 0 1.6-0.373 2.080-0.96z"></path>
</svg>
<svg id='icon-google-play' width="185" height="60" fill="none">
  <g clip-path="url(#a)">
    <path fill="#240C39" d="M8 0h169c4.4 0 8 3.6 8 8v44c0 4.4-3.6 8-8 8H8c-4.4 0-8-3.6-8-8V8c0-4.4 3.6-8 8-8Z"/>
    <path fill="#fff" d="M95.7 31.4c-2.5 0-4.6 2.1-4.6 4.6 0 2.5 2.1 4.6 4.6 4.6 2.5 0 4.6-2 4.6-4.6 0-1.2-.5-2.4-1.3-3.3-.9-.9-2.1-1.3-3.3-1.3Zm0 7.3c-1.1.1-2.2-.5-2.7-1.6-.5-1-.3-2.3.5-3.1.8-.8 2-1.1 3.1-.7 1.1.4 1.8 1.4 1.8 2.6 0 .7-.2 1.4-.7 1.9-.6.6-1.3.9-2 .9Zm-10.1-7.3c-2.5 0-4.6 2.1-4.6 4.6 0 2.5 2.1 4.6 4.6 4.6 2.5 0 4.6-2 4.6-4.6 0-1.2-.5-2.4-1.3-3.3-.9-.9-2.1-1.3-3.3-1.3Zm0 7.3c-1.1.1-2.2-.5-2.7-1.6-.5-1-.3-2.3.5-3.1.8-.8 2-1.1 3.1-.7 1.1.4 1.8 1.4 1.8 2.6 0 .7-.2 1.4-.7 1.9-.6.6-1.3.9-2 .9Zm-12-5.9v1.9h4.7c-.1.9-.5 1.8-1.1 2.4-.9 1-2.3 1.5-3.6 1.4-2.9 0-5.2-2.3-5.2-5.2 0-2.9 2.3-5.2 5.2-5.2 1.3 0 2.6.5 3.5 1.4l1.4-1.4c-1.3-1.3-3.1-2-4.9-2-2.6-.1-5.1 1.2-6.4 3.5-1.3 2.2-1.3 5 0 7.3 1.3 2.2 3.8 3.6 6.4 3.5 1.9.1 3.7-.6 5-2 1.1-1.2 1.7-2.9 1.7-4.5 0-.4 0-.8-.1-1.2l-6.6.1Zm49 1.5c-.6-1.7-2.1-2.9-3.9-2.9-1.2 0-2.3.5-3.2 1.4-.8.9-1.2 2-1.2 3.2 0 1.2.4 2.4 1.3 3.2.9.9 2 1.3 3.3 1.3 1.5 0 3-.7 3.8-2l-1.6-1.1c-.5.8-1.3 1.3-2.3 1.3-1 0-1.8-.5-2.2-1.4l6.2-2.5-.2-.5Zm-6.2 1.5c0-.7.2-1.3.6-1.8.5-.5 1.1-.8 1.8-.8s1.4.3 1.7 1l-4.1 1.6Zm-5 4.4h2V26.8h-2v13.4Zm-3.3-7.8c-.7-.7-1.6-1.1-2.5-1.1-2.5.1-4.4 2.1-4.4 4.6 0 2.5 1.9 4.5 4.4 4.6.9 0 1.8-.4 2.4-1.1h.1v.7c0 1.8-.9 2.7-2.5 2.7-1 0-1.9-.7-2.3-1.6l-1.8.7c.7 1.6 2.3 2.7 4.1 2.7 2.4 0 4.3-1.4 4.3-4.8v-8.1H108l.1.7Zm-2.4 6.3c-1.4-.1-2.6-1.3-2.6-2.8 0-1.4 1.1-2.7 2.6-2.8.7 0 1.4.3 1.8.9.5.5.7 1.2.6 1.9.1.7-.2 1.4-.6 1.9-.4.6-1.1.9-1.8.9Zm26.4-11.9h-4.8v13.4h2v-5.1h2.8c1.6.1 3.1-.7 3.9-2 .8-1.3.8-3 0-4.4-.8-1.2-2.3-2-3.9-1.9Zm0 6.5h-2.8v-4.6h2.9c1.3 0 2.3 1 2.3 2.3 0 1.3-1.1 2.3-2.4 2.3Zm12.5-2c-1.5-.1-2.9.7-3.6 2.1l1.8.7c.4-.7 1.1-1.1 1.8-1 .5-.1 1 .1 1.4.4.4.3.7.8.7 1.3v.2c-.7-.3-1.4-.5-2.1-.5-1.9 0-3.9 1.1-3.9 3 0 .8.4 1.6 1 2.2.6.6 1.5.8 2.3.8 1 .1 2-.4 2.6-1.3h.1v1.1h1.9v-5.2c.1-2.4-1.7-3.7-4-3.8Zm-.3 7.4c-.7 0-1.6-.3-1.6-1.1 0-1.1 1.1-1.4 2.2-1.4.6 0 1.3.1 1.8.5-.1 1.1-1.1 2-2.4 2Zm11.5-7.1-2.3 5.8h-.1l-2.4-5.8h-2.2l3.6 8.1-2.1 4.5h2.1l5.5-12.7h-2.1v.1Zm-18.2 8.6h2V26.8h-2v13.4Z"/>
    <path fill="#fff" stroke="#fff" stroke-width=".5" d="M73.3 19c0 .8-.3 1.6-.8 2.1-.6.6-1.5 1-2.4 1-1.4 0-2.6-.8-3.1-2.1s-.2-2.7.7-3.7c.6-.6 1.5-1 2.4-1 .5 0 .9.1 1.3.3.4.2.7.4 1 .7l-.6.6c-.4-.5-1.1-.8-1.8-.8s-1.3.3-1.8.8-.7 1.1-.7 1.8c0 1 .6 2 1.5 2.4.9.4 2 .2 2.8-.5.3-.4.5-.8.5-1.3H70v-.8h3.1c.2.2.2.3.2.5Zm4.9-2.7h-2.9v2H78v.8h-2.7v2h2.9v.9h-3.8v-6.4h3.8v.7Zm3.6 5.7H81v-5.7h-1.8v-.8h4.5v.8h-1.9V22Zm5 0v-6.4h.8V22h-.8Zm4.6 0h-.8v-5.7h-1.8v-.8h4.5v.8h-1.8V22h-.1Zm10.2-.9c-1.3 1.3-3.4 1.3-4.8 0-1.3-1.3-1.3-3.4 0-4.8 1.3-1.3 3.4-1.3 4.8 0 1.3 1.4 1.3 3.5 0 4.8Zm-4.1-.5c1 1 2.6 1 3.5 0 1-1 1-2.7 0-3.7s-2.5-1-3.5 0-1 2.7 0 3.7Zm6.2 1.4v-6.4h1l3.2 5v-5h.8V22h-.9l-3.3-5.3V22h-.8Z"/>
    <path fill="#00A0FF" d="M33.3 16.1c-.4.4-.5 1-.5 1.5v23.8c0 .5.1 1.1.5 1.5l.1.1 13.4-13.3v-.3L33.3 16.1Z"/>
    <path fill="#FFE000" d="m51.2 34.1-4.4-4.4v-.3l4.4-4.5.1.1 5.3 3c1.5.9 1.5 2.2 0 3.1l-5.3 3h-.1Z"/>
    <path fill="#FF3A44" d="m51.3 34-4.6-4.5-13.4 13.4c.6.6 1.6.6 2.2.1l15.8-9Z"/>
    <path fill="#32A071" d="m51.3 25-15.8-9c-.7-.5-1.6-.5-2.2.1l13.5 13.4 4.5-4.5Z"/>
    <path fill="#000" d="m51.2 33.9-15.7 8.9c-.6.5-1.5.5-2.2 0l-.1.1.1.1c.6.5 1.5.5 2.2 0l15.8-9-.1-.1Z" opacity=".2"/>
    <path fill="#000" d="M33.3 42.7c-.4-.4-.5-1-.5-1.5v.2c0 .5.1 1.1.5 1.5v-.2Zm23.3-11.8-5.4 3 .1.1 5.3-3c.6-.3 1-.9 1.1-1.5-.1.6-.5 1.1-1.1 1.4Z" opacity=".12"/>
    <path fill="#fff" d="m35.5 16.2 21.1 11.9c.6.3 1 .8 1.1 1.4-.1-.7-.5-1.3-1.1-1.5L35.5 16c-1.5-.9-2.7-.1-2.7 1.6v.2c0-1.7 1.2-2.5 2.7-1.6Z" opacity=".25"/>
  </g>
</svg>
<svg id="icon-difer-3" width="33" height="22" viewBox="0 0 48 32" x="0" y="0">
<path fill="#f8a644" d="M13.964 12.945c-0.145 0-0.582-0.145-1.018-0.145h-2.182v3.055h2.182c0.727 0 1.309-0.145 1.6-0.436s0.436-0.582 0.436-1.164c0-0.291-0.145-0.727-0.291-0.873s-0.436-0.291-0.727-0.436z"></path>
<path fill="#f8a644" d="M19.636 12.8c-0.145 0.582-0.291 1.018-0.436 1.6l-0.873 2.473h2.909l-1.018-2.327c-0.291-0.727-0.436-1.309-0.582-1.745z"></path>
<path fill="#f8a644" d="M44.364 14.836c0-1.891 1.309-3.636 3.055-4.218v-7.709c0-1.6-1.309-2.909-2.909-2.909h-41.6c-1.6 0-2.909 1.309-2.909 2.909v7.709c1.745 0.582 3.055 2.327 3.055 4.218s-1.309 3.636-3.055 4.218v9.164c0 1.6 1.309 2.909 2.909 2.909h41.455c1.6 0 2.909-1.309 2.909-2.909v-9.164c-1.6-0.582-2.909-2.327-2.909-4.218zM12.945 16.873h-2.182v3.491h-1.164v-8.436h3.2c0.582 0 1.018 0 1.309 0.145 0.436 0 0.727 0.145 1.018 0.436 0.291 0.145 0.582 0.436 0.727 0.873 0.145 0.291 0.291 0.727 0.291 1.164 0 0.727-0.291 1.309-0.727 1.891-0.436 0.291-1.309 0.436-2.473 0.436zM22.4 20.364l-1.018-2.618h-3.491l-1.018 2.618h-1.164l3.2-8.436h1.164l3.491 8.436h-1.164zM30.545 19.2c-0.291 0.436-0.582 0.727-1.164 0.873-0.436 0.291-1.018 0.291-1.6 0.291-0.727 0-1.455-0.145-1.891-0.291-0.582-0.291-0.873-0.582-1.164-1.018s-0.436-1.018-0.436-1.455l1.018-0.145c0 0.436 0.145 0.727 0.291 1.018s0.436 0.436 0.873 0.727c0.436 0.145 0.873 0.291 1.309 0.291s0.873 0 1.164-0.145c0.291-0.145 0.582-0.291 0.727-0.582s0.291-0.436 0.291-0.727c0-0.291-0.145-0.436-0.291-0.727-0.145-0.145-0.436-0.436-0.727-0.436-0.291-0.145-0.727-0.291-1.455-0.436s-1.309-0.291-1.6-0.582c-0.436-0.145-0.727-0.436-0.873-0.727s-0.291-0.727-0.291-1.018c0-0.436 0.145-0.873 0.436-1.164 0.291-0.436 0.582-0.727 1.018-0.873s1.018-0.291 1.6-0.291c0.582 0 1.164 0.145 1.6 0.291s0.873 0.436 1.164 0.873c0.291 0.436 0.436 0.873 0.436 1.309l-1.018 0.145c0-0.582-0.291-0.873-0.582-1.164s-0.873-0.436-1.455-0.436c-0.727 0-1.164 0.145-1.455 0.436s-0.436 0.582-0.436 0.873c0 0.291 0.145 0.582 0.291 0.727s0.727 0.436 1.745 0.582c0.873 0.145 1.6 0.436 1.891 0.582 0.436 0.291 0.873 0.582 1.164 0.873s0.291 0.727 0.291 1.164c-0.436 0.436-0.582 0.873-0.873 1.164zM38.545 19.2c-0.291 0.436-0.582 0.727-1.164 0.873-0.436 0.291-1.018 0.291-1.6 0.291-0.727 0-1.455-0.145-1.891-0.291-0.582-0.291-0.873-0.582-1.164-1.018s-0.436-1.018-0.436-1.455l1.018-0.145c0 0.436 0.145 0.727 0.291 1.018s0.436 0.436 0.873 0.727c0.436 0.145 0.873 0.291 1.309 0.291s0.873 0 1.164-0.145c0.291-0.145 0.582-0.291 0.727-0.582s0.291-0.436 0.291-0.727c0-0.291-0.145-0.436-0.291-0.727-0.145-0.145-0.436-0.436-0.727-0.436-0.291-0.145-0.727-0.291-1.455-0.436s-1.309-0.291-1.6-0.582c-0.436-0.145-0.727-0.436-0.873-0.727s-0.291-0.727-0.291-1.018c0-0.436 0.145-0.873 0.291-1.164 0.291-0.436 0.582-0.727 1.018-0.873s1.018-0.291 1.6-0.291c0.582 0 1.164 0.145 1.6 0.291s0.873 0.436 1.164 0.873c0.291 0.436 0.436 0.873 0.436 1.309l-1.018 0.145c0-0.582-0.291-0.873-0.582-1.164s-0.873-0.436-1.455-0.436c-0.727 0-1.164 0.145-1.455 0.436s-0.436 0.582-0.436 0.873c0 0.291 0.145 0.582 0.291 0.727s0.727 0.436 1.745 0.582c0.873 0.145 1.6 0.436 1.891 0.582 0.436 0.291 0.873 0.582 1.164 0.873s0.291 0.727 0.291 1.164c-0.436 0.436-0.582 0.873-0.727 1.164z"></path>
</svg>
<svg id="icon-difer-2" width="31" height="32" viewBox="0 0 31 32" x="0" y="0">
<path fill="none" stroke="#ff5678" stroke-linejoin="miter" stroke-linecap="butt" stroke-miterlimit="4" stroke-width="1.3" d="M7.4 1h16.2c3.6 0 6.5 2.9 6.5 6.5v17c0 3.6-2.9 6.5-6.5 6.5h-16.2c-3.6 0-6.5-2.9-6.5-6.5v-17c0-3.6 2.9-6.5 6.5-6.5z"></path>
<path fill="#ff5678" d="M12 17.2c1.5 0 2.5-1 2.5-2.4v-2.3c0-1.4-1-2.4-2.5-2.4s-2.5 1-2.5 2.4v2.3c0 1.4 1.1 2.4 2.5 2.4zM12.9 22.5l7.5-10.7-1.5-1.1-7.5 10.7 1.5 1.1zM12 15.6c-0.4 0-0.8-0.3-0.8-0.8v-2.2c-0.1-1 1.6-1 1.5 0v2.2c0.1 0.4-0.2 0.8-0.7 0.8zM19.7 23.2c1.5 0 2.6-1 2.6-2.4v-2.3c0-1.4-1.1-2.4-2.6-2.4s-2.5 1-2.5 2.4v2.3c0 1.4 1.1 2.4 2.5 2.4zM19.8 21.6c-0.5 0-0.8-0.4-0.8-0.8v-2.2c0-0.4 0.3-0.8 0.8-0.8s0.8 0.3 0.8 0.8v2.2c-0.1 0.5-0.4 0.8-0.8 0.8z"></path>
</svg>
<svg id="icon-difer-1" width="24" height="31" viewBox="0 0 25 32" x="0" y="0">
<path fill="#00c9c9" d="M17.755 24.258v7.742l-5.471-2.168-5.677 2.168v-7.845c1.445 1.961 3.2 1.548 4.955 0.723 0.31-0.103 0.619-0.103 0.929 0 1.961 0.826 3.819 1.342 5.265-0.619z"></path>
<path fill="#00c9c9" d="M12.181 6.503c-3.097 0-5.471 2.477-5.471 5.471 0 3.097 2.477 5.471 5.471 5.471s5.471-2.477 5.471-5.471c0-2.994-2.374-5.471-5.471-5.471z"></path>
<path fill="#00c9c9" d="M23.948 12.49l-0.516-0.826c-0.31-0.516-0.413-1.135-0.31-1.755l0.31-1.239c0.31-1.032-0.206-2.168-1.239-2.581l-0.929-0.413c-0.619-0.31-0.929-0.826-1.135-1.342l-0.413-1.239c-0.31-1.032-1.342-1.652-2.477-1.548l-1.032 0.103c-0.619 0.103-1.239-0.103-1.755-0.413l-0.929-0.826c-0.826-0.619-2.065-0.619-2.89 0l-0.723 0.826c-0.413 0.31-0.929 0.516-1.652 0.516l-1.135-0.206c-1.032-0.103-2.065 0.619-2.477 1.548l-0.31 1.032c-0.206 0.619-0.516 1.135-1.135 1.342l-1.032 0.516c-1.032 0.516-1.445 1.548-1.135 2.684l0.206 1.032c0.206 0.619 0 1.135-0.206 1.755l-0.619 1.032c-0.516 0.929-0.413 2.065 0.413 2.787l0.723 0.723c0.516 0.413 0.723 0.929 0.826 1.548v1.239c0.103 1.032 0.826 1.961 1.961 2.168l1.032 0.206c0.619 0.103 1.135 0.31 1.548 0.929l0.723 0.929c0.619 0.929 1.755 1.239 2.787 0.826l0.929-0.413c0.619-0.31 1.135-0.31 1.755 0l1.032 0.413c1.032 0.413 2.168 0.103 2.787-0.826l0.619-0.826c0.31-0.516 0.826-0.826 1.548-0.929l1.135-0.206c1.032-0.206 1.858-1.135 1.858-2.168l0.103-1.032c0-0.619 0.206-1.239 0.723-1.652l0.826-0.826c0.619-0.826 0.826-1.961 0.206-2.89zM12.284 19.2c-4.026 0-7.123-3.2-7.123-7.123s3.097-7.123 7.123-7.123c3.923 0 7.123 3.2 7.123 7.123-0.103 3.923-3.2 7.123-7.123 7.123z"></path>
</svg>
<svg id="icon-about-3" width="105" height="105" viewBox="0 0 32 32" x="0" y="0">
<path fill="#00C9C9" opacity="0.2" d="M16 32c8.837 0 16-7.163 16-16s-7.163-16-16-16c-8.837 0-16 7.163-16 16s7.163 16 16 16z"></path>
<path fill="#0cc" stroke="#173753" stroke-linejoin="round" stroke-linecap="round" stroke-miterlimit="4" stroke-width="0.8296" d="M12.526 7.75l1.613-0.619 1.032 2.689-1.613 0.619-1.032-2.689z"></path>
<path fill="#e5f9f9" stroke="#0f2336" stroke-linejoin="round" stroke-linecap="round" stroke-miterlimit="4" stroke-width="0.8296" d="M16.237 9.609c2.481 0 4.493 2.011 4.493 4.493 0 0.614-0.123 1.199-0.346 1.732l-0.757 6.645c-0.159 1.397-1.341 2.452-2.747 2.452h-1.631c-1.406 0-2.588-1.055-2.747-2.452l-0.757-6.649h0.344c-0.222-0.532-0.344-1.115-0.344-1.728 0-2.481 2.011-4.493 4.493-4.493z"></path>
<path fill="#00c9c9" d="M16.932 19.67c1.151 0.767 2.161 1.199 3.030 1.296l-0.143 1.427c-0.154 1.539-1.449 2.711-2.996 2.711h-1.563c-1.547 0-2.842-1.172-2.996-2.711l-0.302-3.012c1.538-0.99 3.195-0.894 4.97 0.288z"></path>
<path fill="none" stroke="#173753" stroke-linejoin="round" stroke-linecap="round" stroke-miterlimit="4" stroke-width="0.8296" d="M16.237 9.609c2.481 0 4.493 2.011 4.493 4.493 0 0.614-0.123 1.199-0.346 1.732l-0.757 6.645c-0.159 1.397-1.341 2.452-2.747 2.452h-1.631c-1.406 0-2.588-1.055-2.747-2.452l-0.757-6.649h0.344c-0.222-0.532-0.344-1.115-0.344-1.728 0-2.481 2.011-4.493 4.493-4.493v0z"></path>
<path fill="#e5f9f9" stroke="#173753" stroke-linejoin="round" stroke-linecap="round" stroke-miterlimit="4" stroke-width="0.8296" d="M20.903 13.757h-9.677c-0.477 0-0.864 0.387-0.864 0.864v0.346c0 0.477 0.387 0.864 0.864 0.864h9.677c0.477 0 0.864-0.387 0.864-0.864v-0.346c0-0.477-0.387-0.864-0.864-0.864z"></path>
</svg>
<svg id="icon-about-2" width="105" height="105" viewBox="0 0 32 32" x="0" y="0">
<path fill="#00C9C9" opacity="0.2" d="M16 32c8.837 0 16-7.163 16-16s-7.163-16-16-16c-8.837 0-16 7.163-16 16s7.163 16 16 16z"></path>
<path fill="#0cc" stroke="#173753" stroke-linejoin="round" stroke-linecap="round" stroke-miterlimit="4" stroke-width="1.0368" d="M16.076 24.076c4.418 0 8-3.582 8-8s-3.582-8-8-8c-4.418 0-8 3.582-8 8s3.582 8 8 8z"></path>
<path fill="#e5f9f9" d="M16.114 21.714c3.093 0 5.6-2.507 5.6-5.6s-2.507-5.6-5.6-5.6c-3.093 0-5.6 2.507-5.6 5.6s2.507 5.6 5.6 5.6z"></path>
<path fill="#173753" d="M14.354 16.434c0.61 0 1.059-0.404 1.059-1.006v-0.96c0-0.602-0.45-1.006-1.059-1.006s-1.059 0.404-1.059 1.006v0.96c0 0.602 0.45 1.006 1.059 1.006zM14.644 18.697l3.2-4.549-0.594-0.427-3.192 4.549 0.587 0.427zM14.354 15.81c-0.221 0-0.381-0.175-0.381-0.396v-0.93c0-0.221 0.16-0.389 0.381-0.389s0.389 0.175 0.389 0.389v0.93c0 0.221-0.168 0.396-0.389 0.396zM17.539 18.994c0.61 0 1.059-0.404 1.059-1.006v-0.96c0-0.602-0.45-1.006-1.059-1.006s-1.051 0.404-1.051 1.006v0.96c0 0.602 0.442 1.006 1.051 1.006zM17.539 18.37c-0.221 0-0.373-0.175-0.373-0.396v-0.93c0-0.221 0.152-0.389 0.373-0.389s0.389 0.175 0.389 0.389v0.93c0 0.221-0.168 0.396-0.389 0.396z"></path>
</svg>
<svg id="icon-about-1" width="105" height="105" viewBox="0 0 32 32" x="0" y="0">
<path fill="#00C9C9" opacity="0.2" d="M16 32c8.837 0 16-7.163 16-16s-7.163-16-16-16c-8.837 0-16 7.163-16 16s7.163 16 16 16z"></path>
<path fill="#0cc" stroke="#173753" stroke-linejoin="round" stroke-linecap="round" stroke-miterlimit="4" stroke-width="1.0368" d="M15.924 23.924c4.418 0 8-3.582 8-8s-3.582-8-8-8c-4.418 0-8 3.582-8 8s3.582 8 8 8z"></path>
<path fill="#e5f9f9" d="M15.924 21.524c3.093 0 5.6-2.507 5.6-5.6s-2.507-5.6-5.6-5.6c-3.093 0-5.6 2.507-5.6 5.6s2.507 5.6 5.6 5.6z"></path>
<path fill="none" stroke="#173753" stroke-linejoin="round" stroke-linecap="round" stroke-miterlimit="4" stroke-width="0.7561" d="M14.019 16.035h4.032M16.035 18.051l2.016-2.016-2.016-2.016v4.032z"></path>
</svg>
<svg id="icon-arrow" width="28" height="17" viewBox="0 0 49 32" x="0" y="0">
<path fill="none" stroke="#173753" stroke-linejoin="round" stroke-linecap="round" stroke-miterlimit="4" stroke-width="3.7806" d="M3.048 16h42.667M24.381 28.952l21.333-12.952-21.333-12.952v25.905z"></path>
</svg>
<svg id="icon-logo" width="130" height="47" viewBox="0 0 89 32" x="0" y="0">
<path fill="#122f53" d="M28.514 13.711v2.912h4.316v11.627h3.019v-11.627h4.316v-2.912h-11.652zM53.28 14.555c-0.877-0.604-2.189-0.926-3.808-0.926-0.729 0-4.323 0.077-4.475 0.081l-0.57 0.012v14.527h3.039v-5.269h1.941c1.154 0.025 2.296-0.228 3.33-0.74 1.417-0.882 2.266-2.442 2.232-4.108 0-1.626-0.567-2.83-1.689-3.577zM47.459 16.623c0.594 0 1.49-0.043 1.859-0.043 2.111 0 2.542 0.647 2.542 1.615 0.007 0.566-0.252 1.103-0.699 1.452-0.623 0.3-1.313 0.434-2.003 0.387h-1.692l-0.008-3.411h0.001zM61.42 16.929c-1.494-0.011-2.925 0.601-3.947 1.688-1.060 1.084-1.642 2.547-1.615 4.062-0.021 1.522 0.561 2.991 1.619 4.089 1.022 1.084 2.452 1.694 3.943 1.684 1.039 0.013 2.058-0.283 2.927-0.852v0.468h3v-10.892l-2.954 0.616c-0.882-0.578-1.918-0.879-2.973-0.863zM63.446 20.556c0.541 0.574 0.835 1.335 0.819 2.122 0.018 0.793-0.277 1.561-0.819 2.141-0.491 0.534-1.183 0.839-1.91 0.839s-1.419-0.305-1.909-0.839c-0.543-0.581-0.836-1.351-0.816-2.145-0.017-0.786 0.276-1.548 0.816-2.121 0.484-0.545 1.178-0.856 1.907-0.856s1.424 0.311 1.907 0.856l0.004 0.004zM74.896 21.513l-1.164-0.445c-1.049-0.388-1.049-0.504-1.049-0.662 0-0.248 0-0.705 1.336-0.705 0.959 0.002 1.903 0.232 2.755 0.67l0.831 0.388v-3.125l-0.388-0.143c-1.041-0.392-2.144-0.596-3.257-0.6-2.686 0-4.293 1.27-4.293 3.396s1.553 2.888 2.748 3.322l1.25 0.446c1.211 0.43 1.328 0.549 1.328 0.774 0 0.318 0 0.848-1.518 0.848-1.137-0.003-2.251-0.325-3.214-0.929l-0.877-0.504v3.21l0.315 0.163c1.168 0.574 2.454 0.866 3.757 0.852 2.853 0 4.556-1.332 4.556-3.558 0.020-2.041-1.401-2.761-3.116-3.396v-0.001zM85 21.513l-1.164-0.445c-1.049-0.388-1.049-0.504-1.049-0.662 0-0.248 0-0.705 1.335-0.705 0.959 0.002 1.903 0.232 2.755 0.67l0.831 0.388v-3.125l-0.388-0.143c-1.041-0.392-2.144-0.596-3.257-0.6-2.686 0-4.293 1.27-4.293 3.396s1.553 2.888 2.748 3.322l1.25 0.446c1.211 0.43 1.328 0.549 1.328 0.774 0 0.318 0 0.848-1.518 0.848-1.138-0.003-2.252-0.325-3.214-0.929l-0.878-0.504v3.21l0.315 0.163c1.168 0.574 2.454 0.866 3.757 0.852 2.853 0 4.557-1.332 4.557-3.558 0.019-2.041-1.382-2.761-3.117-3.396l0.001-0.001z"></path>
<path fill="#000" d="M39.968 28.281c0.872 0 1.58-0.706 1.58-1.576s-0.707-1.576-1.58-1.576c-0.872 0-1.58 0.706-1.58 1.576s0.707 1.576 1.58 1.576z"></path>
<path fill="#000" d="M9.962 30.859c2.943 0 5.646-1.775 6.025-3.956l0.612-5.414c-1.149 0.577-1.52 1.853-3.941 0.862 0 0-2.395-1.303-3.062-1.505-3.313-1.007-6.449 1.691-6.478 1.732l0.87 4.262c0.383 2.204 3.065 4.019 5.975 4.019z"></path>
<path fill="#122f53" d="M18.048 12.482c-0.258-3.529-2.734-6.504-6.164-7.406l0.188-1.738 1.555-0.791 1.062-0.533c0.22-0.111 0.388-0.304 0.466-0.538s0.059-0.488-0.052-0.709l-0.131-0.257c-0.015-0.028-0.031-0.056-0.048-0.083-0.257-0.401-0.776-0.543-1.202-0.329l-0.321 0.162-0.023 0.011-3.027 1.499c-0.176 0.080-0.297 0.247-0.318 0.439l-0.28 2.588c-4.372 0.014-7.934 3.4-8.245 7.684-0.875 0.169-1.506 0.932-1.506 1.82v0.872c0.001 0.991 0.784 1.804 1.776 1.848l1.226 9.467c0.247 2.963 2.591 5.199 5.451 5.199h2.81c2.86 0 5.204-2.234 5.447-5.165l1.23-9.514c0.922-0.121 1.612-0.903 1.614-1.831v-0.871c0.001-0.89-0.631-1.655-1.506-1.823h0.001zM9.777 6.189c3.593 0 6.543 2.756 6.869 6.258h-1.362c-0.32-2.757-2.658-4.9-5.505-4.9s-5.191 2.143-5.509 4.901h-1.362c0.326-3.502 3.275-6.258 6.869-6.258v-0.001zM13.956 12.447h-1.508c-0.29-1.238-1.396-2.113-2.67-2.113s-2.38 0.875-2.67 2.113h-1.508c0.313-2.060 2.089-3.583 4.178-3.583s3.865 1.523 4.178 3.583zM3.872 22.084l-0.655-5.054h5.185l-0.336 3.182c-1.97-0.064-3.368 0.981-4.194 1.871zM15.288 26.37c-0.184 2.217-1.916 3.889-4.026 3.889h-2.809c-2.111 0-3.842-1.672-4.030-3.923l-0.342-2.641c0.312-0.517 1.58-2.338 3.862-2.316l-0.422 4.003c-0.055 0.523 0.314 0.996 0.825 1.052l0.287 0.032c0.032 0.004 0.064 0.006 0.096 0.006 0.484-0.004 0.885-0.373 0.93-0.853l0.393-3.737c0.074 0.033 0.147 0.063 0.223 0.101 2.63 1.284 4.456 0.898 5.538 0.335l-0.524 4.053h-0.001zM16.015 20.752c-0.354 0.367-1.994 1.767-5.229 0.188-0.207-0.101-0.408-0.186-0.606-0.265l0.384-3.646h5.933l-0.481 3.723zM18.141 15.173c0 0.119-0.046 0.232-0.13 0.316s-0.197 0.132-0.315 0.132h-15.835c-0.247 0-0.447-0.2-0.447-0.446v-0.872c0.001-0.246 0.201-0.446 0.447-0.446h15.835c0.247 0 0.446 0.2 0.447 0.446l-0.001 0.869z"></path>
<path fill="#122f53" d="M11.413 27.87c-0.43 0.093-0.703 0.516-0.61 0.945s0.517 0.702 0.946 0.61c0.43-0.092 0.704-0.516 0.612-0.944-0.045-0.207-0.17-0.387-0.348-0.501s-0.394-0.154-0.601-0.109zM11.986 26.098c-0.148 0.033-0.261 0.15-0.289 0.299s0.039 0.299 0.166 0.38c0.127 0.081 0.291 0.079 0.415-0.008s0.184-0.238 0.152-0.385c-0.044-0.201-0.243-0.329-0.445-0.286v-0.001zM6.816 28.375c-0.15 0.033-0.246 0.181-0.213 0.331s0.181 0.245 0.331 0.212c0.151-0.033 0.246-0.18 0.214-0.331-0.016-0.072-0.059-0.135-0.122-0.175s-0.138-0.053-0.21-0.038zM9.907 26.596c-0.209 0.045-0.37 0.212-0.408 0.421s0.055 0.423 0.235 0.537c0.18 0.116 0.412 0.111 0.588-0.010s0.26-0.337 0.215-0.545c-0.062-0.284-0.344-0.465-0.629-0.404zM6.764 26.596c-0.285 0.062-0.466 0.343-0.404 0.628s0.343 0.465 0.628 0.403c0.285-0.062 0.466-0.342 0.404-0.628-0.030-0.136-0.112-0.256-0.23-0.332s-0.261-0.101-0.398-0.071zM11.696 25.21c0.304-0.066 0.538-0.308 0.594-0.613 0.055-0.305-0.080-0.614-0.341-0.782s-0.599-0.162-0.854 0.015c-0.255 0.177-0.378 0.489-0.312 0.792 0.090 0.414 0.499 0.676 0.914 0.587h-0.001zM8.214 28.249c-0.247 0.155-0.323 0.48-0.168 0.727s0.481 0.322 0.728 0.168c0.248-0.154 0.324-0.478 0.171-0.725-0.074-0.119-0.193-0.204-0.33-0.236s-0.281-0.008-0.4 0.067v-0.001zM13.53 25.556c0.155 0.247 0.481 0.322 0.728 0.167s0.323-0.48 0.168-0.727c-0.154-0.246-0.481-0.322-0.729-0.167-0.119 0.074-0.204 0.192-0.235 0.329s-0.007 0.28 0.068 0.398zM13.461 27.059c-0.248 0.154-0.323 0.48-0.168 0.727s0.481 0.322 0.728 0.168c0.248-0.154 0.323-0.48 0.168-0.727-0.074-0.119-0.193-0.203-0.33-0.235s-0.28-0.007-0.399 0.067h0.001zM6.467 24.877c-0.222-0.353-0.687-0.459-1.040-0.239s-0.461 0.685-0.24 1.037c0.221 0.353 0.687 0.46 1.040 0.239 0.17-0.106 0.291-0.275 0.336-0.469s0.011-0.399-0.096-0.569v0.001z"></path>
</svg>
<svg id="icon-logo-footer" width="130" height="47" viewBox="0 0 89 32" x="0" y="0">
<path fill="#fff" d="M28.514 13.711v2.912h4.316v11.627h3.019v-11.627h4.316v-2.912h-11.652zM53.28 14.555c-0.877-0.604-2.189-0.926-3.808-0.926-0.729 0-4.323 0.077-4.475 0.081l-0.57 0.012v14.527h3.039v-5.269h1.941c1.154 0.025 2.296-0.228 3.33-0.74 1.417-0.882 2.266-2.442 2.232-4.108 0-1.626-0.567-2.83-1.689-3.577zM47.459 16.623c0.594 0 1.49-0.043 1.859-0.043 2.111 0 2.542 0.647 2.542 1.615 0.007 0.566-0.252 1.103-0.699 1.452-0.623 0.3-1.313 0.434-2.003 0.387h-1.692l-0.008-3.411h0.001zM61.42 16.929c-1.494-0.011-2.925 0.601-3.947 1.688-1.060 1.084-1.642 2.547-1.615 4.062-0.021 1.522 0.561 2.991 1.619 4.089 1.022 1.084 2.452 1.694 3.943 1.684 1.039 0.013 2.058-0.283 2.927-0.852v0.468h3v-10.892l-2.954 0.616c-0.882-0.578-1.918-0.879-2.973-0.863zM63.446 20.556c0.541 0.574 0.835 1.335 0.819 2.122 0.018 0.793-0.277 1.561-0.819 2.141-0.491 0.534-1.183 0.839-1.91 0.839s-1.419-0.305-1.909-0.839c-0.543-0.581-0.836-1.351-0.816-2.145-0.017-0.786 0.276-1.548 0.816-2.121 0.484-0.545 1.178-0.856 1.907-0.856s1.424 0.311 1.907 0.856l0.004 0.004zM74.896 21.513l-1.164-0.445c-1.049-0.388-1.049-0.504-1.049-0.662 0-0.248 0-0.705 1.336-0.705 0.959 0.002 1.903 0.232 2.755 0.67l0.831 0.388v-3.125l-0.388-0.143c-1.041-0.392-2.144-0.596-3.257-0.6-2.686 0-4.293 1.27-4.293 3.396s1.553 2.888 2.748 3.322l1.25 0.446c1.211 0.43 1.328 0.549 1.328 0.774 0 0.318 0 0.848-1.518 0.848-1.137-0.003-2.251-0.325-3.214-0.929l-0.877-0.504v3.21l0.315 0.163c1.168 0.574 2.454 0.866 3.757 0.852 2.853 0 4.556-1.332 4.556-3.558 0.020-2.041-1.401-2.761-3.116-3.396v-0.001zM85 21.513l-1.164-0.445c-1.049-0.388-1.049-0.504-1.049-0.662 0-0.248 0-0.705 1.335-0.705 0.959 0.002 1.903 0.232 2.755 0.67l0.831 0.388v-3.125l-0.388-0.143c-1.041-0.392-2.144-0.596-3.257-0.6-2.686 0-4.293 1.27-4.293 3.396s1.553 2.888 2.748 3.322l1.25 0.446c1.211 0.43 1.328 0.549 1.328 0.774 0 0.318 0 0.848-1.518 0.848-1.138-0.003-2.252-0.325-3.214-0.929l-0.878-0.504v3.21l0.315 0.163c1.168 0.574 2.454 0.866 3.757 0.852 2.853 0 4.557-1.332 4.557-3.558 0.019-2.041-1.382-2.761-3.117-3.396l0.001-0.001z"></path>
<path fill="#59C4C9" d="M39.968 28.281c0.872 0 1.58-0.706 1.58-1.576s-0.707-1.576-1.58-1.576c-0.872 0-1.58 0.706-1.58 1.576s0.707 1.576 1.58 1.576z"></path>
<path fill="#59C4C9" d="M9.962 30.859c2.943 0 5.646-1.775 6.025-3.956l0.612-5.414c-1.149 0.577-1.52 1.853-3.941 0.862 0 0-2.395-1.303-3.062-1.505-3.313-1.007-6.449 1.691-6.478 1.732l0.87 4.262c0.383 2.204 3.065 4.019 5.975 4.019z"></path>
<path fill="#fff" d="M18.048 12.482c-0.258-3.529-2.734-6.504-6.164-7.406l0.188-1.738 1.555-0.791 1.062-0.533c0.22-0.111 0.388-0.304 0.466-0.538s0.059-0.488-0.052-0.709l-0.131-0.257c-0.015-0.028-0.031-0.056-0.048-0.083-0.257-0.401-0.776-0.543-1.202-0.329l-0.321 0.162-0.023 0.011-3.027 1.499c-0.176 0.080-0.297 0.247-0.318 0.439l-0.28 2.588c-4.372 0.014-7.934 3.4-8.245 7.684-0.875 0.169-1.506 0.932-1.506 1.82v0.872c0.001 0.991 0.784 1.804 1.776 1.848l1.226 9.467c0.247 2.963 2.591 5.199 5.451 5.199h2.81c2.86 0 5.204-2.234 5.447-5.165l1.23-9.514c0.922-0.121 1.612-0.903 1.614-1.831v-0.871c0.001-0.89-0.631-1.655-1.506-1.823h0.001zM9.777 6.189c3.593 0 6.543 2.756 6.869 6.258h-1.362c-0.32-2.757-2.658-4.9-5.505-4.9s-5.191 2.143-5.509 4.901h-1.362c0.326-3.502 3.275-6.258 6.869-6.258v-0.001zM13.956 12.447h-1.508c-0.29-1.238-1.396-2.113-2.67-2.113s-2.38 0.875-2.67 2.113h-1.508c0.313-2.060 2.089-3.583 4.178-3.583s3.865 1.523 4.178 3.583zM3.872 22.084l-0.655-5.054h5.185l-0.336 3.182c-1.97-0.064-3.368 0.981-4.194 1.871zM15.288 26.37c-0.184 2.217-1.916 3.889-4.026 3.889h-2.809c-2.111 0-3.842-1.672-4.030-3.923l-0.342-2.641c0.312-0.517 1.58-2.338 3.862-2.316l-0.422 4.003c-0.055 0.523 0.314 0.996 0.825 1.052l0.287 0.032c0.032 0.004 0.064 0.006 0.096 0.006 0.484-0.004 0.885-0.373 0.93-0.853l0.393-3.737c0.074 0.033 0.147 0.063 0.223 0.101 2.63 1.284 4.456 0.898 5.538 0.335l-0.524 4.053h-0.001zM16.015 20.752c-0.354 0.367-1.994 1.767-5.229 0.188-0.207-0.101-0.408-0.186-0.606-0.265l0.384-3.646h5.933l-0.481 3.723zM18.141 15.173c0 0.119-0.046 0.232-0.13 0.316s-0.197 0.132-0.315 0.132h-15.835c-0.247 0-0.447-0.2-0.447-0.446v-0.872c0.001-0.246 0.201-0.446 0.447-0.446h15.835c0.247 0 0.446 0.2 0.447 0.446l-0.001 0.869z"></path>
<path fill="#fff" d="M11.413 27.87c-0.43 0.093-0.703 0.516-0.61 0.945s0.517 0.702 0.946 0.61c0.43-0.092 0.704-0.516 0.612-0.944-0.045-0.207-0.17-0.387-0.348-0.501s-0.394-0.154-0.601-0.109zM11.986 26.098c-0.148 0.033-0.261 0.15-0.289 0.299s0.039 0.299 0.166 0.38c0.127 0.081 0.291 0.079 0.415-0.008s0.184-0.238 0.152-0.385c-0.044-0.201-0.243-0.329-0.445-0.286v-0.001zM6.816 28.375c-0.15 0.033-0.246 0.181-0.213 0.331s0.181 0.245 0.331 0.212c0.151-0.033 0.246-0.18 0.214-0.331-0.016-0.072-0.059-0.135-0.122-0.175s-0.138-0.053-0.21-0.038zM9.907 26.596c-0.209 0.045-0.37 0.212-0.408 0.421s0.055 0.423 0.235 0.537c0.18 0.116 0.412 0.111 0.588-0.010s0.26-0.337 0.215-0.545c-0.062-0.284-0.344-0.465-0.629-0.404zM6.764 26.596c-0.285 0.062-0.466 0.343-0.404 0.628s0.343 0.465 0.628 0.403c0.285-0.062 0.466-0.342 0.404-0.628-0.030-0.136-0.112-0.256-0.23-0.332s-0.261-0.101-0.398-0.071zM11.696 25.21c0.304-0.066 0.538-0.308 0.594-0.613 0.055-0.305-0.080-0.614-0.341-0.782s-0.599-0.162-0.854 0.015c-0.255 0.177-0.378 0.489-0.312 0.792 0.090 0.414 0.499 0.676 0.914 0.587h-0.001zM8.214 28.249c-0.247 0.155-0.323 0.48-0.168 0.727s0.481 0.322 0.728 0.168c0.248-0.154 0.324-0.478 0.171-0.725-0.074-0.119-0.193-0.204-0.33-0.236s-0.281-0.008-0.4 0.067v-0.001zM13.53 25.556c0.155 0.247 0.481 0.322 0.728 0.167s0.323-0.48 0.168-0.727c-0.154-0.246-0.481-0.322-0.729-0.167-0.119 0.074-0.204 0.192-0.235 0.329s-0.007 0.28 0.068 0.398zM13.461 27.059c-0.248 0.154-0.323 0.48-0.168 0.727s0.481 0.322 0.728 0.168c0.248-0.154 0.323-0.48 0.168-0.727-0.074-0.119-0.193-0.203-0.33-0.235s-0.28-0.007-0.399 0.067h0.001zM6.467 24.877c-0.222-0.353-0.687-0.459-1.040-0.239s-0.461 0.685-0.24 1.037c0.221 0.353 0.687 0.46 1.040 0.239 0.17-0.106 0.291-0.275 0.336-0.469s0.011-0.399-0.096-0.569v0.001z"></path>
</svg>
</svg>
